<svg fill="currentColor" width="802" height="2606" viewBox="0 0 8020 2606" xmlns="http://www.w3.org/2000/svg">
  <path
     d="m 4076.6211,-11650.867 c -93.3749,1.875 -188.1212,10.363 -246.6211,24.863 -25,6 -78.0039,30 -119.0039,55 -40,24 -79.9922,44.004 -86.9922,44.004 -49.9999,0 -346.0001,275 -405,375 -16,28 -38.0039,82 -49.0039,120 -12,39 -32.0039,99 -44.0039,135 -27,75 -42.9961,148 -50.9961,240 -4,36 -10.9961,94 -15.9961,130 -6,36 -13,124.992 -15,196.992 -6,146 -8.0079,149.008 -68.0078,118.008 -37,-19 -99.9961,-19 -115.9961,0 -18,22 -24.9961,183.992 -10.9961,256.9922 7,35 16.9922,88.0078 21.9922,118.0078 14,73.9999 29,130.9922 40,151.9922 5,10 9.0039,28.0156 9.0039,41.0156 0,13 4.0078,26.9922 8.0078,31.9922 5,6 14.9922,37 21.9922,70 26,113.9999 102.004,195 184.0039,195 48,0 62.0039,25.0001 69.0039,125 6,89.9999 30.0001,171.0001 75,260 30,57.9999 30.9922,65.0001 31.9922,195 2,192.9998 -7.0078,405.9922 -18.0078,426.9922 -5,10 -14.9922,68.0079 -21.9922,128.0078 -6,60.9999 -19.9961,137.0039 -30.9961,169.0039 -10,33 -19.0039,64 -19.0039,70 0,17 -49.0001,68.9922 -115,121.9922 -33,26 -62,51.0039 -65,54.0039 -3,4 -16,13 -30,20 -14,7 -45,30 -70,50 -41,33 -103.0001,73 -185,120 -49,28 -205.0039,80 -239.0039,80 -18,0 -49.9922,8.0039 -71.9922,19.0039 -86.9999,41 -296.0041,77 -489.0039,85 -65.9999,3 -134,9.9922 -150,16.9922 -17,6 -48,15.0039 -70,19.0039 -93.9999,18 -309.9922,111 -356.9922,155 -13,12 -35.0039,28 -49.0039,35 -30,16 -87.9961,63.0079 -140.9961,113.0078 -22,20 -44.0078,36.9922 -48.0078,36.9922 -8,0 -51.9922,87.004 -91.9922,184.0039 -15,38 -32.0156,74 -36.0156,80 -10,13 -44.98833,126.9962 -82.98829,270.9961 -8.99999,36 -36.00003,100.9922 -60,146.9922 -5,10 -9.00391,24.0078 -9.00391,33.0078 0,8 -9.00392,30.0078 -19.00391,48.0078 -9.99999,19 -21,55.9883 -25,82.9883 -13.99998,120.9999 -19,150.0039 -25,159.0039 C 756.99613,-5995 707,-5632.9998 710,-5467 c 7.99999,355.9996 -7.00007,491.0002 -80,710 -5,14 -14.00391,50 -19.00391,80 -5.99999,30 -17.99219,91 -26.99218,135 -37.99997,193.9998 -39.99609,256.0007 -35.9961,915 v 168.0078 c -1,20 -0.008,56.9922 1.99219,81.9922 2,25 -2.00391,81 -9.00391,125 -5.99999,44 -16,109 -20,145 -10.99999,80.9999 -30.98832,155.0001 -77.98828,290 -19.99998,57.9999 -40.00391,128 -44.0039,155 -4,28 -13.00392,68 -19.00391,90 -6.99999,22 -13.99219,56 -16.99219,75 -2.99999,19 -9.00781,40 -13.00781,45 -12.99999,19 -46.00001,205.0001 -55,320 -3,39 -0.99999,158.0001 5,265 5.99999,106.9999 15,294.0001 20,415 5,120.9999 14.00001,272.0001 20,335 10.99999,110.9999 24.00391,388.00011 24.00391,500 1,115.99988 -15.00392,458.00006 -24.00391,515 C 315.00002,75.999822 308.00389,116.00008 289.00391,198 278.00392,247.99995 264.99999,313.00003 260,343 c -14.99999,89.99991 -26.00783,132.99223 -43.00781,171.99219 -7.99999,19.99998 -20.9922,62.00003 -26.99219,95 -6.99999,31.99997 -16,63.00782 -20,68.00781 -4,5.99999 -10.00391,41.00785 -14.00391,78.00781 C 148.9961,825.00774 161.00393,895.00003 184.00391,923 220.00387,966.99996 228.99998,1076.9923 205,1169.9922 191.00001,1222.9921 179.0078,1308.0002 163.00781,1468 160.00782,1501 154,1533 150,1538 c -4,6 -12.00391,44 -19.00391,85 -18.99998,118.9999 -33.988286,184 -42.988278,195 C 84.007816,1823 80,1836.9922 80,1849.9922 c 0,12 -4.992195,43.0117 -11.992188,67.0117 -12.999987,50 -28.999831,11.9886 139.999998,337.9883 75.99993,144.9998 131.99617,241.0079 205.9961,353.0078 25.99997,37 45.99609,71 45.99609,75 0,14 107.00007,63.9961 175,80.9961 37.99996,9 104.00004,29.0039 145,44.0039 60.99994,22 92.00398,26.9961 164.00391,25.9961 C 1095.0038,2832.9961 1220,2777.9999 1220,2713 c 0,-9 -27.9922,-34 -61.9922,-55 -57.9999,-37 -86.0079,-50 -203.0078,-90 -83.99992,-29 -111.99222,-46.0039 -141.99219,-84.0039 -54.99994,-67.9999 -97.99996,-279.9883 -65,-312.9883 7,-7 11.99219,-18 11.99219,-25 0,-7 27.00003,-53.0118 60,-102.0117 90.99991,-133.9999 157.00395,-155.996 199.0039,-65.9961 11,25 20.9961,52 20.9961,60 0,9 6.9961,29.9922 15.9961,46.9922 18,35 51.0078,172.0079 63.0078,258.0078 9,68.9999 25.9923,100.0001 96.9922,175 50.9999,52.9999 60.9961,60 95.9961,60 29,0 43.0156,-6 51.0156,-20 19,-33 36.9961,-99 30.9961,-115 -25,-67.9999 -35.0078,-209.0003 -38.0078,-510 -3,-319.9997 -10.0039,-411.0001 -39.0039,-500 -8,-25 -19.9961,-70 -25.9961,-100 -18,-81.9999 -49.9883,-156.9962 -97.9883,-230.9961 -23,-37 -53.0117,-100 -67.0117,-139.99999 C 1090.9961,853.00402 1060,678.99991 1060,588 c 1,-81.99992 23.9961,-354.00013 40.9961,-480 15,-110.999889 28.0078,-204.000081 38.0078,-285 24,-185.99981 30.9961,-228.00005 40.9961,-280 6,-29.99997 15,-82.00003 20,-115 5,-32.99997 14,-82.00003 20,-110 6,-26.99997 15,-70.00002 20,-95 16,-79.99992 23,-104.00003 40,-135 9,-15.99998 22.0039,-57.00003 29.0039,-90 7,-33 16.9961,-69 20.9961,-80 10,-24 24.9961,-92.0001 40.9961,-195 7,-41 20.0039,-88 29.0039,-105 17,-33 32,-80.0001 50,-165 13,-60.9999 23.9922,-100.0079 51.9922,-178.0078 10,-29 18.0078,-65 18.0078,-80 0,-15 7.9922,-46.9922 16.9922,-71.9922 9,-25 20,-67 25,-95 5,-27 13.0078,-72 18.0078,-100 5,-27 14,-70 20,-95 15,-57.9999 28.0078,-196.0002 38.0078,-385 4,-81.9999 11,-154.9961 15,-160.9961 8,-14 13,-476.0039 5,-489.0039 -19,-31 46.9883,-355.0001 102.9883,-505 32,-86.9999 45.9961,-138.0001 55.9961,-200 3,-19 9.0078,-39 13.0078,-45 4,-5 13.0039,-35 19.0039,-65 21,-96.9999 42,-160 55,-160 8,0 16.0039,38.9923 24.0039,116.9922 7,63.9999 15.9961,121.0117 20.9961,127.0117 4,6 11,51.9961 15,100.9961 3,50 14.9922,128 26.9922,175 21,85.9999 33.0039,145.0001 49.0039,235 5,28 14,75 20,105 14,74.9999 29,225.0002 40,410 5,84.9999 13.0039,225.0001 19.0039,310 20,285.9997 15.9961,687.0002 -9.0039,860 -5,36 -13.9961,106 -20.9961,155 -11,89.9999 -28.0039,174.0001 -49.0039,250 -6,22 -13.9961,51 -15.9961,65 -3,14 -9.0039,41 -14.0039,60 -5,19 -19,76 -30,125 -12,49.9999 -22.9961,99.00001 -25.9961,110 -9,33.99997 -24.0039,233.00015 -29.0039,380 -8,211.99979 -16.0039,312.00008 -34.0039,390 -28,116.999883 -30.9961,136.996103 -25.9961,145.996094 8,11.999988 7.9961,206.004206 0.9961,504.003906 -13,491.99951 -11.9883,485.00024 -62.9883,725 -31,150.9998 -34.0078,166.0001 -43.0078,220 -14,90.9999 -38.0039,206.9922 -49.0039,241.9922 -15,45.9999 -41.9922,224.0079 -51.9922,343.0078 -4,54.9999 -13,154.0001 -20,220 -6,65.9999 -13,266.0002 -15,445 -2,193.9998 -7.0039,341 -14.0039,365 -7,24 -8,77.0001 -5,135 8,112.9999 8.0039,111.0002 -0.9961,270 -3,68.9999 -10,129.0039 -15,134.0039 -14,16 -9.0078,292.9962 6.9922,385.9961 8,47 19.0039,112 24.0039,145 8,56.9999 18.9961,120.0001 40.9961,230 10,54.9999 25.0039,153.0001 39.0039,260 5,39 14,99 20,135 32,179.9998 46,280.0002 60,440 5,57.9999 14.9922,152.0001 21.9922,210 16,133.9999 17,534.0001 0,615 -11,56.9999 -22.9922,177.0002 -41.9922,415 -10,124.9999 -25.9961,252.0001 -40.9961,335 -6,33 -14.0039,121.0001 -19.0039,195 -13,219.9998 -22.9961,280.9923 -60.9961,366.9922 -11,24 -19.0039,49 -19.0039,55 0,7 -16,58.0079 -35,113.0078 -20,54.9999 -51.9961,150.0001 -70.9961,210 -20,60.9999 -45,132.0039 -55,159.0039 -10,27 -19.0039,56.9922 -19.0039,66.9922 0,11 -4.0039,27.0117 -9.0039,37.0117 -11,22 -38.9922,133.9923 -56.9922,231.9922 -8,41 -18.0078,89 -23.0078,105 -25,88.9999 -30.9961,119.0001 -45.9961,215 -43,272.9997 -48.9961,384.0002 -30.9961,540 9,73.9999 20.9961,171 25.9961,215 5,44 14,127.0001 20,185 18,183.9998 27.0039,244 39.0039,280 25,73.9999 45.9961,206.0002 60.9961,390 10,123 11,132 40,255 32,138 39,177.004 45,274.004 3,52 7.9961,97.992 10.9961,101.992 2,5 7.0039,42.996 9.0039,85.996 2,43 7,119.008 10,168.008 6,80 12.9922,242 16.9922,390 3,88 -26.9922,366.004 -41.9922,394.004 -16,31 -22,222.996 -10,305.996 20,131 23,234.004 10,279.004 -11,40 -65.004,152.996 -134.0039,285.996 -58.9999,112 -95.9961,193.992 -95.9961,211.992 0,32 -48.9922,147.004 -81.9922,194.004 -18,25 -73.0157,87.012 -121.0156,137.012 -49,51 -109.00004,120.992 -135.00001,156.992 -25.99998,36 -49.98438,67.008 -53.98438,68.008 -4.99999,2 -8.00781,9.984 -8.00781,18.984 0,14 -35.9922,72.008 -51.99219,83.008 -3.99999,3 -21.00783,39.004 -38.00781,79.004 -15.99998,41 -34.9961,79.992 -40.99609,86.992 -7,8 -6.99609,18.996 -0.9961,30.996 5,10 9.9961,42.012 10.9961,72.012 2.99999,64 23.99612,110.996 50.99609,110.996 22.99998,0 50,36.008 50,68.008 0,31 44.00785,69.984 83.00781,73.984 25.99998,2 33.98829,9.012 42.98828,37.012 12.99999,41 38.00001,60.996 75.00001,60.996 31,0 79.0039,18.996 79.0039,30.996 0,4 14,17.004 30,29.004 30,21 34.0079,21 118.0078,10 84.9999,-13 133.9844,-32.008 178.9844,-73.008 30,-27 46,-17 60,35 13,47 18.0118,51.012 117.0117,92.012 48,20 142.004,20.996 189.0039,0.996 105.9999,-44 239.0001,-179.992 305,-311.992 17,-33 46.9922,-78.008 66.9922,-98.008 36,-39 38.0039,-45 54.0039,-125 14,-71 99.9961,-298 125.9961,-330 17,-21 115,-230 115,-245 0,-5 6.0039,-16.004 14.0039,-24.004 8,-9 26.9922,-46.996 41.9922,-85.996 l 29.0039,-70 -4.0039,-215 c -7,-422 -7.9922,-402 13.0078,-445 36,-74 55.9922,-281.008 36.9922,-373.008 -21,-99 -32.9883,-135.996 -52.9883,-175.996 -24,-46 -48.0039,-224.996 -49.0039,-370.996 -1,-127 9.9922,-424.996 16.9922,-445.996 2,-9 9.0039,-67 14.0039,-130 10,-113 20,-183.004 40,-269.004 6,-25 14.0039,-67 19.0039,-95 16,-88 39,-178 60,-235 12,-30 20.9961,-62 20.9961,-70 0,-29 90.0078,-314.004 113.0078,-359.0039 13,-25 29.9922,-63.9961 36.9922,-85.9961 7,-22 25.9961,-65.9922 40.9961,-96.9922 16,-32 29.0039,-68.0156 29.0039,-81.0156 0,-14 18,-65.0001 40,-115 22,-49 40,-95.9883 40,-102.9883 0,-8 13.0039,-54.0039 29.0039,-104.0039 17,-49 38.9961,-135.0001 50.9961,-190 11,-54.9999 25,-107.9922 30,-116.9922 6,-10 10,-36.0117 10,-57.0117 0,-22 4.0039,-42 9.0039,-45 5,-3 11.0039,-22.9883 14.0039,-42.9883 3,-21 10.9961,-60.0078 15.9961,-88.0078 52,-253.9997 61,-346.0003 65,-635 3,-196.9998 -7,-383.0001 -25,-465 -10,-47 -29.9961,-273.0001 -30.9961,-360 -1,-77.9999 25.9961,-302 40.9961,-340 5,-11 14,-33.0078 20,-48.0078 6,-15 10.9961,-38 10.9961,-50 0,-26 38.0078,-134.9884 68.0078,-192.9883 39,-75.9999 93.9883,-246.004 112.9883,-344.0039 28,-151.9998 47.0039,-270.008 64.0039,-413.0078 8,-65.9999 17.9922,-124 21.9922,-130 4,-6 10,-46.9962 15,-90.9961 8,-79.9999 19.0117,-155.9962 37.0117,-270.9961 10,-61.9999 24.9961,-171.0001 35.9961,-265 4,-30 12.9961,-88.0039 20.9961,-129.0039 8,-41 17,-117.0001 20,-170 3,-53 8,-102.9961 10,-110.9961 3,-8 10,-58.0001 15,-110 24,-239.9998 56.0078,-435.9962 88.0078,-535.9961 10,-32 25.9961,-95.0039 35.9961,-139.0039 10,-44 25.9961,-107.9922 35.9961,-141.9922 11,-34 19.0039,-72.0039 19.0039,-84.0039 0,-21 12.9961,-70.0039 30.9961,-114.0039 4,-11 10.0078,-38 13.0078,-60 2,-22 8.9961,-60 15.9961,-85 16,-62.9999 28.9961,-134.0001 40.9961,-215 26,-185.9998 39.0039,-256 49.0039,-280 5,-11 11.0039,-42 14.0039,-70 2,-27 8.9961,-72 15.9961,-100 6,-27 14.9961,-81 20.9961,-120 17,-121.9999 29.0078,-125.0077 48.0078,-13.0078 6,39.9999 15.9961,89.0078 20.9961,108.0078 4,19 13.9961,62 20.9961,95 6,33 17.9961,85 25.9961,115 31,117.9999 63.0078,266.9922 63.0078,296.9922 0,17 4.0039,34.0117 9.0039,37.0117 4,3 11,24.9883 15,47.9883 13,82.9999 25.9961,184.0079 35.9961,273.0078 10,91.9999 21,160.0001 40,250 6,28 15,91 20,140 5,49.9999 14,113 20,140 6,28 15,82 20,120 6,39 14,93 20,120 26,134.9999 31,164.0001 40,220 10,63.9999 24.9961,143.0001 40.9961,215 5,25 12,64.0078 15,88.0078 4,23 11,44.9883 15,47.9883 5,3 9.0039,17.0117 9.0039,32.0117 0,15 6.9961,58.9922 15.9961,96.9922 9,39 20.0039,93 24.0039,120 4,28 10.0078,59 13.0078,70 3,11 10.9883,47 17.9883,80 7,33 16,64.9961 20,70.9961 5,5 11.0078,46 13.0078,90 3,43 9.9961,98.0117 15.9961,122.0117 5,23 15,61 20,85 6,23 17,75.9922 25,116.9922 7,41 18.0039,89 24.0039,105 47,141.9999 78,312.0002 90,510 5,77.9999 17.9961,162 30.9961,210 12,44 23.9922,89 26.9922,100 19,75.9999 39.0117,131.9923 82.0117,226.9922 11,26 20.9961,54.0156 20.9961,61.0156 0,8 2.9922,16.9961 6.9922,20.9961 4,4 13.0039,26.0039 19.0039,49.0039 7,23 20.0039,61.9922 29.0039,86.9922 30,76.9999 44,151.9923 45,226.9922 0,38.9999 4.9961,84 10.9961,100 15,39.9999 12.0117,255.008 -7.9883,498.0078 -25,295.9997 -17.0156,813.0001 13.9844,940 8,33 18.0078,85 23.0078,115 4,30 17.0039,82 29.0039,115 12,33 27.9922,89 36.9922,125 8,36 30.0039,110.9961 49.0039,165.9961 19,55.9999 36.9961,121 40.9961,145 7,43.9999 17.0118,73.004 72.0117,209.0039 16,41 44.9883,122.0001 62.9883,180 18,58 35.9961,109 40.9961,115 4,5 8.0078,18 8.0078,30 0,12 4.0078,25 8.0078,30 13,14 64.9922,153 101.9922,270 18,55 36,109 40,120 39,98 78.9922,227.008 91.9922,293.008 16,83 26.0117,127.988 37.0117,162.988 6,20 15.9961,74 20.9961,120 6,46 15.9922,118.004 21.9922,159.004 16,100 13.0039,220.992 -5.9961,261.992 -8,18 -17.9961,49.008 -20.9961,68.008 -4,19 -12.9961,44.992 -20.9961,56.992 -8,12 -14.0039,34.008 -14.0039,48.008 0,15 -4.9961,34.992 -10.9961,46.992 -6,11 -12,57.012 -15,102.012 -2,44 -6,121.004 -10,169.004 -5,79 -4.0039,94 15.9961,135 42,89 62.0078,150 53.0078,165 -3,6 -10,55.996 -15,110.996 -4,56 -10.0117,114.996 -12.0117,130.996 -17,139 -24.9961,249 -25.9961,355 v 153.008 c -1,18 12.9922,43.984 36.9922,73.984 50.9999,61 104.0078,113.008 118.0078,113.008 20,0 109.9922,83 146.9922,135 20,29 42.0039,72.992 49.0039,96.992 7,24 16,45.008 20,48.008 4,3 17.0039,34 29.0039,70 29,85 42.0002,103 195,255 70.9999,72 141.0078,145.008 153.0078,163.008 13,18 38,39.984 55,48.984 17,8 35.9883,21.012 42.9883,27.012 164.9998,159 235.0002,191.988 395,187.988 56.9999,-1 137.0078,-6.988 178.0078,-12.988 92.9999,-14 113,-22.996 135,-60.996 14,-23 23,-28.008 40,-23.008 11,3 47.9961,8.992 80.9961,11.992 103.9999,9 185,-25.996 185,-80.996 0,-20 7.9961,-31.004 30.9961,-44.004 18,-9 44.0039,-28.984 59.0039,-43.984 15,-16 31.9922,-28.008 36.9922,-28.008 5,0 20.0039,-11.996 34.0039,-25.996 20,-21 24.0078,-35.012 23.0078,-82.012 -1,-68 -23,-189.988 -35,-197.988 -5,-3 -9.0039,-14.004 -9.0039,-24.004 0,-11 -9,-33.992 -20,-51.992 -11,-18 -20,-40.008 -20,-48.008 0,-9 -31,-60.004 -70,-114.004 -38,-53 -70,-99.988 -70,-102.988 0,-3 -59.9923,-64.012 -131.9922,-137.012 -72.9999,-73 -155.0078,-160.992 -183.0078,-196.992 -27,-35 -88.9961,-102.996 -135.9961,-150.996 -93.9999,-95 -134.0078,-144.008 -163.0078,-198.008 -36,-68 -67.9961,-125 -75.9961,-135 -4,-5 -10.0039,-21 -14.0039,-35 -25,-87 -25.9922,-97 -11.9922,-165 25,-120 37.0039,-216.008 29.0039,-228.008 -5,-7 -11,-63.992 -15,-126.992 -9,-140 -16.0078,-199 -28.0078,-225 -14,-29 -40.9922,-132 -51.9922,-195 -14,-87 -24.0156,-365 -16.0156,-485 12,-197 26.0117,-360 32.0117,-375 4,-13 20.9961,-157 45.9961,-410 4,-41 17.0078,-127 28.0078,-190 11,-63 23.9922,-149 26.9922,-190 4,-41 13.9922,-95 21.9922,-120 16,-49 29.0117,-185.0003 42.0117,-460 9,-173.9998 0.9961,-370.0001 -19.0039,-485 -6,-33 -15,-98 -20,-145 -17,-146.9999 -27.0078,-216.9961 -33.0078,-225.9961 -3,-5 -7.9922,-56.004 -11.9922,-114.0039 -8,-130.9999 -21.9961,-221.0002 -65.9961,-420 -11,-51.9999 -22.9961,-107.0078 -25.9961,-123.0078 -3,-15 -9.0039,-29.9883 -14.0039,-32.9883 -5,-3 -9.0039,-18.9961 -9.0039,-35.9961 0,-18 -9.0039,-50.0117 -19.0039,-72.0117 -11,-23 -28.9961,-65.9961 -40.9961,-95.9961 -12,-30 -37,-86 -55,-125 -18,-38 -40.9961,-90 -50.9961,-115 -10,-25 -25.9961,-58 -35.9961,-75 C 6443.0079,7156.0001 6440,7141.9998 6440,6948 c 0,-219.9998 -14,-406.0001 -40,-535 -56.9999,-276.9997 -67.9922,-555.0002 -31.9922,-780 12,-73.9999 24.9883,-155 27.9883,-180 3,-25 14.9961,-76.0078 25.9961,-113.0078 10,-38 25.0078,-98 33.0078,-135 8,-37 19,-84.9922 25,-106.9922 6,-22 20,-94.0001 30,-160 11,-65.9999 24,-144.0039 30,-174.0039 5,-30 14,-156.0001 20,-280 14,-317.9997 18.0078,-375.9964 48.0078,-690.9961 8,-88.9999 4.9844,-228.0001 -6.0156,-335 -13,-115.9999 -29.9961,-231.0039 -35.9961,-254.0039 -3,-9 -6.9961,-67.9962 -10.9961,-130.9961 -3,-62.9999 -7.9922,-151 -11.9922,-195 -3,-44 -7.0078,-199.0001 -8.0078,-345 -2,-241.9998 -17,-566.9923 -30,-646.9922 -3,-18 -7.9961,-155.0001 -10.9961,-305 -8,-453.9995 -24,-739.00792 -50,-863.0078 -9,-43.99996 -20.0039,-100.00002 -24.0039,-125 -10,-55.99994 -27.9961,-150.00007 -40.9961,-215 -6,-26.99997 -14.0039,-77.00003 -19.0039,-110 -16,-114.99988 -59.0001,-301.000239 -125,-540 -17,-62.99994 -16.9961,-181.00038 -0.9961,-560 9,-208.9998 5.9961,-596 -4.0039,-615 -5,-9 -11,-45 -15,-80 -3,-36 -12,-94 -20,-130 -52.9999,-248.9998 -65.9922,-429.0005 -66.9922,-925 -1,-334.9997 10.9923,-476.0004 71.9922,-870 6,-38 19,-137.0001 30,-220 10,-81.9999 24,-177 30,-210 6,-33 14.0078,-85 18.0078,-115 11,-84.9999 31.9844,-72.9999 53.9844,30 27,126.9999 35.0078,161 48.0078,205 19,67.9999 30.0039,135.0002 59.0039,350 5,39 16.0039,108 24.0039,155 16,88.9999 14.9961,195.0001 -4.0039,290 -22,110.9999 -30,208.9924 -35,406.9922 -5,172.9998 -3.0078,208 11.9922,250 9,26 20,64.0078 25,83.0078 14,64.9999 41.0078,155 48.0078,165 4,6 13,37 20,70 18,85.9999 28.9961,136 35.9961,165 3,14 10,59 15,100 15,116.9999 27.0039,183.0078 39.0039,213.0078 14,35 49.9922,166.0001 61.9922,225 25,119.9999 43.0078,191.9923 63.0078,261.9922 9,29.99997 22,82.00003 30,115 16,68.99993 20.9922,83.99225 46.9922,141.99219 10,23.99997 19.0039,49.01563 19.0039,56.01562 0,7.99999 2.9922,16.9961 6.9922,20.9961 10,9.99999 33.0078,78.99611 33.0078,100.99609 0,18.99998 22,92.00011 60,200 10,27.99997 21,77.00003 25,110 3,32.99997 10,85.00003 15,115 6,29.99997 15,89.000041 20,130 6,40.999959 18,104.000036 25,140 8,35.99996 19.9922,175.00404 26.9922,309.00391 12,253.99974 5.0117,358.98834 -27.9883,422.98828 -8,14.99998 -14.0039,35.00001 -14.0039,45 0,9.99999 -7,31.01173 -15,47.01172 -8,14.99998 -15,34 -15,40 0,6.99999 -9,31.00393 -20,54.00389 -11,22 -20,44.9961 -20,50.9961 0,5 -13.9961,24.9883 -30.9961,42.9883 -36,38.9999 -80.0078,130.0079 -103.0078,213.0078 -9,33 -27.9883,98 -42.9883,145 -31,102.9999 -34.0078,193.0001 -8.0078,265 14,39 18.9922,88.0001 21.9922,230 4,176.9998 15,242.0079 55,318.0078 5,10 11.0078,61.0001 13.0078,115 5,120.9999 21,227.0001 40,265 17,35 20,66.9922 5,66.9922 -13,0 -13,127 0,135 5,3 93.004,6 194.0039,5 181.9998,0 184.0001,0 250,-30 36,-17 72.0039,-30 79.0039,-30 7,0 25.9922,-14 41.9922,-30 16,-17 39.0078,-30 53.0078,-30 45,0 88.0001,-33.9962 140,-110.9961 53,-77.9999 91.9922,-155.9961 91.9922,-180.9961 0,-24 79.9961,-189.0039 105.9961,-219.0039 8,-8 14.0039,-19.0039 14.0039,-24.0039 0,-4 12.0078,-24.0039 28.0078,-44.0039 41,-55 50.9883,-77.9923 62.9883,-151.9922 9,-49.9999 9,-79.0078 0,-113.0078 -6,-25 -10.9961,-79.9922 -10.9961,-121.9922 0,-82.9999 -12.9922,-171.004 -36.9922,-244.0039 C 7862.0079,1418.0001 7820,1213.0077 7820,1136.0078 c 0,-41.9999 7.9922,-84 26.9922,-135 C 7886.9921,893.00792 7885,764.99976 7840,528 c -42,-216.99978 -48.9922,-256.00012 -61.9922,-375 -18,-160.999839 -19.0117,-602.00015 -2.0117,-750 8,-68.99993 19.0039,-174.99225 24.0039,-236.99219 4,-61.99994 11.0039,-117.01172 14.0039,-122.01172 8,-12.99998 16.9922,-321.99639 16.9922,-615.99609 1,-274.9997 -15.9962,-468.0043 -70.9961,-819.0039 -13,-85.9999 -55.9961,-249.9961 -70.9961,-270.9961 -3,-5 -9.0117,-26 -12.0117,-45 -7,-51.9999 -43,-182.9922 -55,-206.9922 -22,-39.9999 -58.9961,-168.0079 -65.9961,-228.0078 -8,-66.9999 -56,-288 -65,-300 -5,-5 -14,-53.0001 -20,-105 -24,-193.9998 -29.9883,-351.0002 -22.9883,-580 11,-375.9996 5,-671.0078 -15,-703.0078 -3,-5 -10.0039,-50.9962 -14.0039,-100.9961 -7,-86.9999 -14.0039,-124.9962 -39.0039,-225.9961 -6,-25 -15,-67 -20,-95 -4,-27 -13.0039,-68 -19.0039,-90 -5,-22 -15,-87.0001 -20,-145 -6,-57.9999 -17,-161.0001 -25,-230 -8,-68.9999 -14.9961,-161.9922 -15.9961,-206.9922 0,-44.9999 -4.0039,-104 -9.0039,-130 -5,-26 -14.9961,-88.0079 -20.9961,-138.0078 -7,-49 -16,-99 -20,-110 -5,-11 -14,-51 -20,-90 -7,-38 -18.9961,-89.9961 -25.9961,-115.9961 -8,-25 -18.0078,-74 -23.0078,-110 -5,-35 -14,-80.0039 -20,-99.0039 -5,-19 -16.0039,-61.0078 -24.0039,-93.0078 -8,-33 -19.9961,-64 -25.9961,-70 -6,-6 -10.9961,-20.9844 -10.9961,-33.9844 0,-22 -43.0079,-110.0079 -83.0078,-168.0078 -34,-49 -127.9845,-138.0079 -193.9844,-183.0078 -34,-23 -65.0078,-45.9922 -68.0078,-51.9922 -3,-5 -14.0039,-10 -24.0039,-10 -9,0 -34.9922,-8.0039 -56.9922,-19.0039 -21,-10 -60.0117,-26 -87.0117,-35 -26,-9 -80.9922,-31.9961 -121.9922,-50.9961 -90.9999,-44 -210,-93 -250,-105 -16,-5 -79.0001,-11.0039 -140,-14.0039 -215.9998,-10 -294.0001,-19.9961 -360,-45.9961 -11,-5 -31,-11.0039 -45,-14.0039 -14,-2 -41.9922,-9 -61.9922,-15 -21,-6 -53.0117,-15 -72.0117,-20 -35,-9 -109.9884,-41.9922 -207.9883,-91.9922 -31,-16 -62.0078,-29.0039 -68.0078,-29.0039 -6,0 -30.0078,-13.0078 -53.0078,-28.0078 -23,-15 -54.9961,-33.9922 -70.9961,-41.9922 -45,-23 -114,-92.9922 -130,-131.9922 -9,-20 -20,-39.0078 -25,-43.0078 -13,-7 -40.9961,-63.9922 -40.9961,-81.9922 0,-7 -4,-21.0156 -10,-31.0156 -22,-38 -50,-147.9844 -50,-193.9844 0,-27 -4.9961,-59.0156 -10.9961,-71.0156 -13,-24 -12.9961,-323.9961 -0.9961,-340.9961 28,-38 87.9922,-202.9962 111.9922,-310.9961 5,-22 14,-60 20,-85 11,-45 27.0078,-141.004 38.0078,-239.0039 7,-53 7.9922,-54.9883 46.9922,-67.9883 77.9999,-26 121,-85.0079 135,-188.0078 4,-27 14.0078,-86 23.0078,-130 14,-72.9999 32,-290 30,-375 -1,-46 -19.0039,-123 -39.0039,-165 -27,-57 -85.004,-55.004 -144.0039,5.996 -19,20 -34,29.008 -40,23.008 -5,-5 -11.0078,-79.004 -13.0078,-164.004 -4,-144 -9.9961,-235 -20.9961,-335 -5,-40 -49,-203 -65,-240 -23,-54 -73.9883,-154 -92.9883,-185 -111.9999,-182 -204.0079,-288.008 -283.0078,-328.008 -22,-11 -47.9922,-27.984 -56.9922,-38.984 -22,-24 -118.0079,-68.012 -183.0078,-82.012 -52.9999,-12 -145.004,-16.738 -238.3789,-14.863 z m 31.3867,78.242 c 115.7499,1.625 230.4844,14.121 273.9844,36.621 10,5 24.0156,9.004 31.0156,9.004 7,0 21.9883,8.008 32.9883,18.008 10,10 46,36.984 80,58.984 70.9999,48 127,106.008 180,183.008 21,30 42.0078,59.996 48.0078,65.996 6,6 20,28 30,50 17,36 26.9922,54.004 46.9922,94.004 20,40 49.0039,110.996 49.0039,120.996 0,12 36.9961,130.004 50.9961,164.004 9,22 13.0117,75.008 27.0117,388.008 7,170 12,211 25,225 15,14 18,13.984 35,-1.016 10,-9 22.9844,-16.992 28.9844,-16.992 6,0 32.0117,-20.992 57.0117,-46.992 42,-43 48.0039,-46.016 59.0039,-31.016 22,29 39.9883,167.008 27.9883,218.008 -6,25 -10.9961,70 -10.9961,100 0,30 -7,96 -15,145 -8,49.9999 -17.9961,115 -20.9961,145 -9,69.9999 -46,155 -75,170 -20,11 -25.0039,9 -49.0039,-20 -37,-45 -58.9922,-35.9999 -61.9922,25 -2,68.9999 -9.0078,124.0002 -33.0078,285 -10,62.9999 -28,145 -35,155 -4,6 -13,33 -20,60 -7,28 -20.9961,68.9922 -30.9961,91.9922 -10,24 -19.0039,46 -19.0039,50 0,26 -60.0001,122.0079 -125,203.0078 -23,29 -124.9961,130 -145.9961,145 -8,6 -32.0039,23.9961 -54.0039,40.9961 -88.9999,69.9999 -196.9924,86 -391.9922,60 -44.9999,-6 -85.0039,-13.9883 -89.0039,-17.9883 -4,-5 -18,-8.0078 -30,-8.0078 -13,0 -26.0039,-4 -29.0039,-10 -3,-5 -14.0039,-10 -24.0039,-10 -29,0 -146.9961,-65 -180.9961,-100 -8,-8 -33,-26.9922 -55,-41.9922 -42,-29 -154.0079,-134.0157 -193.0078,-181.0156 -32,-39 -161.9922,-233.9883 -161.9922,-242.9883 0,-4 -6.0078,-15.0078 -13.0078,-23.0078 -20,-24 -43.9922,-98.9962 -51.9922,-160.9961 -8,-58.9999 -19.9961,-134.9922 -30.9961,-186.9922 -3,-17 -15,-40.0039 -25,-49.0039 -16,-15 -23.0078,-15.0039 -43.0078,-4.0039 -51,27 -115.9922,-14.9923 -151.9922,-96.9922 -13,-29 -24.0039,-64.0078 -24.0039,-78.0078 0,-13 -4.9961,-36.9922 -10.9961,-51.9922 -6,-15 -15,-37.0078 -20,-48.0078 -26,-66.9999 -69.0039,-293.004 -69.0039,-369.004 0,-60 15.0039,-95.996 39.0039,-95.996 28,0 89.004,29.008 134.0039,63.008 20,16 43.9922,25.988 51.9922,22.988 17,-6 19.9961,-40.996 5.9961,-50.996 -22,-13 -28.9961,-243 -10.9961,-365 6,-41 15.0039,-115 19.0039,-165 5,-49 13,-106.992 20,-126.992 6,-21 15,-53 20,-70 15,-56 42.9922,-131.004 61.9922,-169.004 11,-20 19.0039,-45 19.0039,-55 0,-25 44.0001,-77 170,-205 90.9999,-91 243.9922,-209.004 271.9922,-209.004 5,0 16.0039,-7 24.0039,-15 9,-8 27.0117,-17.996 42.0117,-20.996 15,-3 42,-12.996 60,-20.996 47.5,-21 164.2501,-30.258 280,-28.633 z m 420,1271.621 c -7,4 -33.0039,9 -59.0039,10 -47.9999,2 -150.004,34.004 -204.0039,64.004 -49,27 -104.0078,157.004 -78.0078,184.004 17,17 40,-3.012 65,-57.012 24,-50 35.0157,-60.984 76.0156,-78.984 96.9999,-44 278.0001,-66.008 385,-48.008 142.9999,24 136.9922,22.996 136.9922,5.996 0,-9 -7.9922,-18.992 -16.9922,-21.992 -18,-6 -35.0157,-12.008 -86.0156,-33.008 -38,-15 -203.9844,-34 -218.9844,-25 z M 3635,-10267 c -112.9999,0 -128.9962,2 -195.9961,30 -83.9999,34 -109.0117,53.996 -92.0117,70.996 9,9 23,7.996 55,-4.004 24,-10 58,-16.992 75,-16.992 18,0 35.0078,-4 38.0078,-10 3,-6 50.9922,-10 106.9922,-10 99.9999,0 102.0118,0.992 177.0117,41.992 82.9999,45 108.9922,69.012 116.9922,107.012 3,14 10,36.004 15,49.004 5,12.9998 9.0039,37.992 9.0039,56.992 0,49.9999 19.0039,87.0078 44.0039,83.0078 14,-2 20,-10.0078 20,-23.0078 -5,-60.9999 -25.0039,-178 -34.0039,-195 -5,-10 -10,-26.992 -10,-36.992 0,-11 -16,-29.008 -40,-43.008 -22,-14 -40,-27.992 -40,-31.992 0,-3 -16.9922,-12.004 -36.9922,-19.004 -21,-6 -49.0117,-20 -62.0117,-30 -20,-16 -41.9962,-19.004 -145.9961,-19.004 z m 1470.9961,153.008 c -34,13 -94.9883,139.992 -82.9883,171.992 11,28 29.9922,12.0038 61.9922,-50.9961 17,-31.9999 37,-68.9959 45,-80.9959 17,-26 1.9961,-50 -24.0039,-40 z m -2151.1133,58.867 c -4.7031,1.375 -8.3789,5.379 -10.8789,12.129 -8,20 58.9922,119.9882 101.9922,152.9882 32,24 34.0039,29 34.0039,85 0,58.9999 9.0078,87.0156 38.0078,121.0156 17,19 46.9922,22.9961 56.9922,5.9961 4,-6 -2.9961,-22 -15.9961,-35 -19,-21 -24.0117,-39.0001 -27.0117,-100 -4,-70.9999 -5.9961,-75 -40.9961,-105 -20,-17 -51.9961,-54.0117 -70.9961,-82.0119 -27.75,-39.75 -51.0078,-59.242 -65.1172,-55.117 z m 2107.6563,175.7812 c -5.7969,-4.9062 -12.5313,-4.414 -19.5313,4.336 -16,21 -24.0156,103.0156 -11.0156,116.0156 17,17 26.0078,14.9883 38.0078,-7.0117 18.75,-35.25 9.9297,-98.6211 -7.4609,-113.3399 z m -826.5625,454.0235 c -12.6563,2.125 -25.7227,7.3281 -36.9727,16.3281 -35,29 -18.996,55.9922 29.0039,46.9922 20,-3 42.9961,-13 50.9961,-20 29.25,-28.5 -5.0586,-49.6953 -43.0273,-43.3203 z m -241.8555,7.6953 C 3978.9961,-9414.5 3970,-9407.5 3970,-9397 c 0,16 37.0039,30 79.0039,30 22,0 42.9961,5 45.9961,10 9,15 45,11.9922 45,-3.0078 0,-23 -33.0001,-44 -85,-55 -24.5,-5 -45.7539,-5.7422 -60.8789,-2.6172 z m 36.875,394.6289 c -45,-6 -143.9883,10.0039 -167.9883,29.0039 -26,19 1.0001,26.9922 95,26.9922 53,0 103.9922,5 111.9922,10 8,6 35,8 60,5 25,-4 98.0079,-8.9961 163.0078,-10.9961 116.9999,-5 141,-15 90,-35 -16,-7 -37.0039,-15.9961 -49.0039,-20.9961 -11,-5 -56,-7.0039 -100,-4.0039 -107.9999,8 -152.0079,9 -203.0078,0 z m 218.3789,199.1211 c -8.875,-1.375 -20.8789,-0.625 -38.3789,1.875 -25,3 -86.004,8.9961 -134.0039,10.9961 -90.9999,6 -106.9883,14 -92.9883,50 5,14 16.004,15 69.0039,10 34,-4 97.0001,-8.9883 140,-12.9883 81.9999,-5 101.9961,-18.0039 75.9961,-49.0039 -5,-6 -10.7539,-9.5039 -19.6289,-10.8789 z m -869.1406,38.8672 c 4.8281,1.375 10.2617,5.5078 15.7617,13.0078 99.9999,139.9999 328.9962,340.0079 455.9961,398.0078 76.9999,36 166.0079,59.9883 248.0078,67.9883 197.9998,20 232.0001,19.0078 295,-1.9922 88.9999,-31 124.9923,-53.004 241.9922,-149.0039 16,-13 83,-89.0079 115,-128.0078 19,-25 26.0117,2.0079 32.0117,133.0078 3,71.9999 10.0039,162 14.0039,200 8,67.9999 46.9844,178.0001 83.9844,240 10,17 18.0078,36.0039 18.0078,44.0039 0,32 109.9961,148.9961 165.9961,175.9961 18,8 38.9961,21.0078 45.9961,28.0078 28,25 243.0039,136.9922 264.0039,136.9922 7,0 28.9961,9.0039 50.9961,19.0039 21,10 58.0078,23.9961 83.0078,30.9961 25,7 69.9961,20.9961 100.9961,30.9961 30,11 63.0078,19.0039 73.0078,19.0039 9,0 33.9961,9 55.9961,20 26,13 59.0039,20 99.0039,20 33,0 62.9961,4.9961 65.9961,10.9961 9,14 6.9921,16.0078 -68.0078,43.0078 -37,13 -84.9883,38.9961 -107.9883,55.9961 -22,18 -59.0117,38.9922 -82.0117,46.9922 -23,8 -48.9883,21.0039 -57.9883,29.0039 -9,8 -48.0118,21.0039 -87.0117,29.0039 -39,8 -82.9844,19.9922 -98.9844,26.9922 -15,6 -53.0078,14.0117 -83.0078,17.0117 -50,6 -55,7.9961 -55,30.9961 0,23 4.004,25.0078 49.0039,28.0078 28,2 59,-1.0156 70,-6.0156 12,-5 40.9961,-14.9922 65.9961,-21.9922 25,-7 55.0078,-15.9961 68.0078,-20.9961 13,-5 31.9844,-9.0039 43.9844,-9.0039 27,0 133.0001,-50.9961 200,-95.9961 29,-20 79.0117,-49 112.0117,-65 32,-15 70,-37.9961 85,-50.9961 56.9999,-49.9999 52.9923,-49.0117 141.9922,-37.0117 45.9999,6 102.9961,19 125.9961,30 24,10 47.0078,19.0039 53.0078,19.0039 5,0 53.9922,22.0039 106.9922,49.0039 53.9999,27 116.0078,53.9961 138.0078,60.9961 77.9999,23 184,73.0039 220,104.0039 16,14 48.9922,35.9883 71.9922,47.9883 23,12 47.0039,33 54.0039,45 7,12 20,25.0078 30,28.0078 10,3 21.0039,14.9961 24.0039,25.9961 4,10 10.0039,19.0039 14.0039,19.0039 13,0 100.9961,187.0039 100.9961,214.0039 0,8 4.0039,17 9.0039,20 5,3 12,19.9883 15,37.9883 4,18 10.9961,53.0078 15.9961,78.0078 5,25 14.0039,70 19.0039,100 6,30 14.9961,75 20.9961,100 6,25 12.9961,61 15.9961,80 6,41 23.0039,106 34.0039,135 5,11 11,38 15,60 4,22 10.9961,60 15.9961,85 6,25 14.0039,135.0001 19.0039,245 5,109.9999 14,229 20,265 6,36 15,103 20,150 13,115.9999 24,187.0001 50,305 26,122.9999 39.9922,192.0001 51.9922,270 16,105.9999 32.0078,377.0001 28.0078,480 -8,194.9998 -2.9922,731.0001 8.0078,795 6,36 13.9883,100.0079 17.9883,143.0078 4,43 10.9961,79.9883 15.9961,82.9883 4,3 8.0078,17.0117 8.0078,32.0117 0,14 6.0039,43.9922 14.0039,66.9922 15,43 45.9961,200.0039 45.9961,234.0039 0,12 9.0039,40.0039 19.0039,64.0039 19,41 72.9922,212.9923 91.9922,291.9922 10,39 44.0039,156 59.0039,205 14,42 39,190.0001 50,295 6,54.9999 15.9961,125 20.9961,155 16,84.9999 30.9961,284.0001 30.9961,405 0,253.9997 -12.9922,669.00002 -21.9922,685 -6,9.99999 -10,41.99612 -10,70.99609 0,27.99998 -8.9961,131.00791 -20.9961,228.00782 -18,151.99984 -19.9961,214.99634 -15.9961,465.99609 6,333.99967 14.9883,433.00022 57.9883,655 24,123.99988 47.0078,321.00399 48.0078,404.00391 1,41.99995 -7,79.00004 -25,125 -23,56.99989 -26.9961,79.98839 -25.9961,162.98829 1,53.9999 5.9922,106.0117 11.9922,117.0117 5,11 10,33.9922 10,51.9922 0,17 4.9961,50.0078 10.9961,73.0078 24,90.9999 33,120.9961 40,130.9961 3,6 9.0117,24 12.0117,40 3,17 12.9961,66 20.9961,110 9,44 15.9961,113.0079 15.9961,153.0078 0,40 4.9961,82.9844 10.9961,93.9844 8,15 8.0039,38.0118 -0.9961,87.0117 -15,77.9999 -17.0001,83.0001 -80,170 -44,61.9999 -130,243.9922 -130,276.9922 0,8 -13.9961,43.0117 -30.9961,77.0117 -61.9999,122.9999 -98.0078,148.9921 -78.0078,56.9922 6,-25 15,-64.0078 20,-88.0078 5,-23 9.0039,-57 9.0039,-75 0,-68.9999 47.9922,-181.9962 101.9922,-240.9961 26,-28 46.0078,-75.9961 53.0078,-125.9961 4,-36 1,-52.0078 -15,-78.0078 -23,-37 -44.9922,-32.9843 -36.9922,6.0156 5,28 -22.0117,106.0001 -52.0117,150 -82.9999,120.9999 -90.9922,138.9845 -106.9922,243.9844 -14,94.9999 -22.0039,144.0079 -39.0039,223.0078 -9,40 -34.0039,95 -44.0039,95 -4,0 -15.9922,8.0078 -26.9922,18.0078 -32,29 -77.0039,57.9922 -104.0039,66.9922 -40,12 -145.004,23.9961 -274.0039,30.9961 -111.9999,7 -118.0039,6.0078 -114.0039,-11.9922 2,-12 14.0078,-21.0039 33.0078,-24.0039 91.9999,-17 126.9961,-33.0039 150.9961,-69.0039 13,-20 46.0039,-54 74.0039,-75 73.9999,-56 80,-74.9924 80,-241.9922 0,-150.9998 -12.9961,-266.9961 -35.9961,-320.9961 -11,-27 -18.9961,-32 -50.9961,-35 -35,-3 -38.0156,-6.0117 -41.0156,-37.0117 -2,-18 4.0117,-54.9922 12.0117,-81.9922 21,-61.9999 19.9922,-79.0039 -3.0078,-79.0039 -34,0 -44.9961,27.0001 -60.9961,150 -5,36 -16.0039,105.004 -24.0039,154.0039 -9,49 -15.9961,125.0001 -15.9961,170 0,94.9999 -16,216 -30,230 -6,6 -10,17 -10,25 0,17 -38.0039,98.9961 -49.0039,105.9961 -5,2 -16.9883,-6.0078 -27.9883,-18.0078 -16,-17 -23.0117,-45.9923 -32.0117,-131.9922 -6,-59.9999 -10.9961,-130.0039 -10.9961,-154.0039 0,-45 -8.0078,-76.9962 -38.0078,-160.9961 -11,-31 -17.9883,-99.0001 -22.9883,-215 -4,-92.9999 -13.0039,-199 -19.0039,-235 -18,-102.9999 -22.9922,-191.0039 -11.9922,-214.0039 6,-12 19.9883,-58.9961 32.9883,-105.9961 22,-84.9999 79.0039,-222 104.0039,-250 26,-29 83,-146.0001 100,-205 9,-32.99997 21,-69.00001 25,-80 39,-97.9999 52.9961,-221.00018 45.9961,-405 -9,-240.99976 -21.0039,-373.00005 -39.0039,-420 C 7067.9922,48.000025 7060,1.9960608 7060,-31.003906 c 0,-31.999968 -4.0039,-75.000024 -9.0039,-95.000004 C 7035.9961,-185.00385 7022,-257.00009 7010,-342 c -6,-43.99996 -15.9961,-89.9922 -20.9961,-101.99219 -40,-98.9999 -47.0078,-122.00397 -58.0078,-184.0039 -5,-31.99997 -19.9961,-79.00003 -30.9961,-105 -37,-81.99992 -39,-87.00788 -60,-153.00782 -11,-34.99996 -20,-76.00392 -20,-89.0039 0,-13.99999 -9.0039,-50.99609 -19.0039,-80.99609 -11,-31 -27,-93.9961 -35,-140.9961 -9,-47 -20.9922,-101 -26.9922,-120 -18,-59.9999 -30.0039,-103 -39.0039,-145 -5,-22 -15.0039,-67 -24.0039,-100 -28,-113.9999 -35.9961,-155.0079 -35.9961,-198.0078 0,-24 -4.0039,-46.9922 -9.0039,-51.9922 -5,-6 -11.0039,-28 -14.0039,-50 -11,-77.9999 -23.9844,-141 -38.9844,-185 -8,-25 -21.0078,-65 -28.0078,-90 -7,-25 -15.9961,-54 -20.9961,-65 -32,-69.9999 -43.9961,-173.9963 -40.9961,-355.9961 1,-102.9999 6.9883,-215 12.9883,-250 37,-223.9998 42.9961,-428.004 15.9961,-539.0039 -10,-41 -22.9922,-113.9922 -26.9922,-161.9922 -5,-47.9999 -16.0039,-113 -24.0039,-145 -9,-32 -17.9922,-85.0078 -21.9922,-118.0078 -4,-33 -10.0039,-64 -14.0039,-70 -8,-11 -17.0039,-45.0001 -29.0039,-115 -14,-72.9999 -40.9961,-209.0001 -60.9961,-300 -14,-62.9999 -17,-96 -10,-125 5,-22 11.0039,-223.9924 14.0039,-446.9922 2,-223.9998 7,-411.0156 10,-416.0156 2,-4 5.9922,-140.9885 6.9922,-302.9883 2,-259.9997 0,-299.0039 -15,-334.0039 -19,-44 -82.9922,-115 -101.9922,-115 -23,0 -26.0078,20.0078 -8.0078,48.0078 10,15 30.0039,46.9922 44.0039,71.9922 l 25,45 -3.0078,295 c -1,161.9998 -6.9844,338.0001 -13.9844,390 -7,57.9999 -9,164.0001 -5,275 6,189.9998 -6.0078,479.0001 -23.0078,580 -6,33 -15,96 -20,140 -5,44 -14,105 -20,135 -5,30 -14.0039,82 -19.0039,115 -5,33 -14.9961,85 -20.9961,115 -6,30 -15.9961,100.0001 -20.9961,155 -5,54.9999 -14.0039,129 -19.0039,165 -6,36 -14.0039,106 -19.0039,155 -5,49.9999 -11.0039,97 -14.0039,105 -3,8 -8.9922,40 -11.9922,70 -3,30 -10,93 -15,140 -39,332.9997 -20.0039,947.0003 35.9961,1235 46.9999,239.9998 55.0117,308.0002 62.0117,495 10,295.9997 4.9961,460.00018 -19.0039,635 -13,93.99991 -14,138.00008 -5,220 11,98.9999 47.9961,272.00013 85.9961,405 10,35.999964 21.0039,81.000019 24.0039,100 3,18.99998 10.9922,58.00003 16.9922,85 10,49.99995 24.0039,127.00009 39.0039,220 4,27.99997 22,115.00008 40,195 48,216.99978 53.0039,287.00075 79.0039,1035 6,164.9998 15,372.0001 20,460 5,87.9999 12,291.0002 15,450 3,159.9998 7.9961,297.9922 10.9961,306.9922 3,8 10,89.004 15,179.0039 5,89.9999 14,196.0039 20,234.0039 35,240.9998 43.9961,484.0001 20.9961,630 -7,44 -15.9961,170.0001 -20.9961,280 -15,331.9997 -28.0078,546.0001 -38.0078,615 -12,82.9999 -39.9883,225.9961 -52.9883,265.9961 -5,17 -9.0039,42.0117 -9.0039,57.0117 0,14 -4,28.9922 -10,31.9922 -5,3 -10,19.9922 -10,36.9922 0,18 -4,45.0117 -10,62.0117 -60.9999,194.9998 -85.9922,395.9966 -101.9922,850.9961 0,11 6.9961,61 15.9961,110 52,278.9997 65.9961,373.0079 75.9961,498.0078 6,75.9999 8.9961,155 5.9961,175 -13,75.9999 -10.9883,340.9844 2.0117,353.9844 6,6 11.9922,9 11.9922,5 0,-4 9,-2.9922 20,3.0078 11,6 20,19.0078 20,28.0078 0,10 4.0039,21.9883 9.0039,27.9883 5,5 13.9961,27.0039 20.9961,49.0039 14,45 78,182 95,205 6,8 17.0078,33.9922 23.0078,56.9922 7,22 19.9844,58 28.9844,80 21,47.9999 52.0078,154.0079 63.0078,213.0078 11,64.9999 60,282 65,290 2,4 7,60.9962 10,125.9961 4,64.9999 10,130.0039 15,144.0039 11,31 19,89.0001 30,205 5,49.9999 14,119 20,155 34,209.9998 23,770.0002 -20,940 -15,60.9999 -27,134.9923 -35,221.9922 -4,39.9998 -12.9961,105.0078 -20.9961,143.0078 -7,39 -19,117 -25,175 -6,58 -15,139 -20,180 -26,206 -31.0039,254 -39.0039,360 -6,63 -14.0039,158 -19.0039,210 -15,174 1.0039,506 29.0039,575 4,11 20,65 35,120 33,122 53,383.008 35,468.008 -14,64 -28.9961,140.984 -35.9961,183.984 -4,23 0,43.008 15,68.008 12,20 20.9961,46.008 20.9961,58.008 0,12 9,32.992 20,46.992 11,14 20,27.992 20,31.992 0,4 18,34.012 40,67.012 22,33 40,63.988 40,67.988 0,5 18.0039,30.016 39.0039,56.016 22,26 40.9883,51 42.9883,55 2,4 31.0156,28.996 66.0156,55.996 35,27 67,56 70,65 15,34 122.0001,158.988 245,282.988 69.9999,71 126.9922,132.016 126.9922,136.016 0,4 20.0039,29 44.0039,55 24,27 53.9961,67.988 65.9961,92.988 22,41 21.9922,45.012 6.9922,62.012 -10,10 -16.9922,21.992 -16.9922,26.992 0,5 27.9922,63.996 61.9922,130.996 57.9999,116 61.0078,124.008 48.0078,153.008 -16,40 -29,36 -60,-20 -24,-43 -222.9961,-249.004 -240.9961,-249.004 -12,0 -11.0039,28.008 0.9961,43.008 5,7 27.0039,31.992 49.0039,56.992 94.9999,108 133.9883,157 142.9883,180 6,14 15.0156,34.992 21.0156,46.992 7,16 6.9922,27.008 -3.0078,38.008 -21,25 -39.9922,17.996 -91.9922,-34.004 -28,-27 -75,-61.992 -105,-76.992 -62.9999,-32 -75.0079,-48.012 -138.0078,-172.012 -26,-51 -50.9922,-91.992 -56.9922,-91.992 -12,0 -1.0039,57 15.9961,85 7,11 20.9961,45 30.9961,75 27,78 47.9922,105 101.9922,130 27,12 72.0156,45.008 101.0156,73.008 57,57 67.9844,99 33.9844,130 -39,35 -194,10.984 -200,-31.016 -3,-20 -44.9962,-62.992 -110.9961,-111.992 -56.9999,-43 -81.9922,-75.992 -116.9922,-156.992 -19,-43 -34.0039,-83.008 -34.0039,-88.008 0,-6 -6.0039,-19.996 -14.0039,-30.996 -14,-18 -15.9922,-18.012 -31.9922,-2.012 -18,18 -16.0039,25.008 30.9961,133.008 54.9999,128 51.0001,122 145,195 50,38 90,77.008 90,88.008 0,23 -42.9922,71.992 -66.9922,76.992 -15,3 -42.0039,10 -59.0039,15 -34,11 -157.004,11 -249.0039,0 -81.9999,-9 -156.9923,-50.004 -236.9922,-129.004 -37.9999,-36 -109.0039,-103.996 -159.0039,-150.996 C 6220.0041,13709 6158,13640 6145,13578 c -4,-16 -14.9961,-48.992 -25.9961,-71.992 -10,-24 -19.0039,-48 -19.0039,-55 0,-12 -65.0079,-111.016 -113.0078,-171.016 -12,-16 -55.9883,-54.988 -97.9883,-87.988 -42,-32 -93.0078,-76.996 -113.0078,-100.996 l -36.9922,-43.008 5,-185 c 5,-182 12.9961,-276 35.9961,-435 17,-116 12.0078,-197 -16.9922,-285 -34,-103 -41.0078,-145 -33.0078,-190 5,-25 9,-65 10,-90 0,-75 25,-176 70,-285 24,-57 28.0039,-113.004 19.0039,-239.004 -5,-72 -13.0078,-146.996 -18.0078,-165.996 -6,-19 -12,-55 -15,-80 -15,-135 -65,-354 -100,-435 -10,-22 -20.9961,-58 -25.9961,-80 -4,-22 -20.9922,-78 -36.9922,-125 -17,-47 -41.0078,-119 -53.0078,-160 -13,-41 -30.9961,-93 -40.9961,-115 -9,-22 -28.0117,-67 -42.0117,-100 -14,-33 -28.9883,-73 -32.9883,-90 -9,-38 -58.0039,-191 -74.0039,-230 -18,-44 -26,-64.0001 -50,-130 -12,-33 -25.9961,-70.0078 -30.9961,-83.0078 -5,-13 -9.0039,-33.9883 -9.0039,-47.9883 0,-13 -4,-32.0117 -10,-42.0117 -5,-9 -16.0039,-41.9922 -24.0039,-71.9922 -8,-30 -26,-88.0079 -40,-128.0078 -14,-41 -25.9961,-84.9883 -25.9961,-97.9883 0,-14 -6.9961,-41.0117 -15.9961,-62.0117 -20,-46 -55,-227.9923 -60,-306.9922 -1,-33 -6,-121.0001 -10,-195 -15,-257.9997 -5.9961,-571.0002 24.0039,-805 18,-144.9999 2.9961,-424.004 -29.0039,-529.0039 -5,-16 -9.0039,-41.9922 -9.0039,-56.9922 0,-15 -4.0039,-30.0078 -9.0039,-33.0078 -4,-3 -13.9961,-26.9883 -20.9961,-52.9883 -12,-47.9999 -23.9961,-82 -40.9961,-115 -5,-10 -9.0039,-26.0156 -9.0039,-36.0156 0,-11 -6.0039,-31.9883 -14.0039,-47.9883 -8,-16 -20.9961,-47.0039 -30.9961,-69.0039 -9,-22 -20.9961,-47.9922 -25.9961,-56.9922 -5,-10 -9.0039,-24.0156 -9.0039,-31.0156 0,-8 -7,-26.9844 -15,-43.9844 -26,-50.9999 -64.0039,-246.0079 -64.0039,-328.0078 -1,-103.9999 -37.9922,-336.0002 -81.9922,-515 -4,-19 -11.0039,-48 -14.0039,-65 -4,-16 -10,-39 -15,-50 -5,-11 -12,-40 -15,-65 -3,-25 -9.0039,-74 -14.0039,-110 -4,-36 -18,-101 -30,-145 -33,-117.9999 -59.9961,-239.0079 -75.9961,-338.0078 -8,-49 -19.0039,-105 -24.0039,-125 -5,-20 -14.9961,-67.9922 -20.9961,-106.9922 -7,-38 -20.9961,-97.0039 -30.9961,-129.0039 -10,-33 -19.0039,-73.9883 -19.0039,-92.9883 0,-18 -4,-52 -10,-75 -17,-75.9999 -48.0039,-260.008 -69.0039,-413.0078 -6,-44 -15.9922,-96 -21.9922,-115 -6,-19 -15,-69 -20,-110 -14,-110.9999 -25.0078,-186.0001 -43.0078,-275 -8,-44 -14.9961,-102.9922 -15.9961,-131.9922 0,-28 -4.0039,-62 -9.0039,-75 -5,-13 -14,-73.0079 -20,-133.0078 -12,-118.9999 -16.9922,-146.0002 -56.9922,-305 -14,-57.9999 -30.0039,-125 -34.0039,-150 -4,-25 -20.0039,-88.9922 -34.0039,-141.9922 -14,-53.9999 -25.9961,-109.0117 -25.9961,-122.0117 0,-14 -7,-50.9883 -15,-82.9883 -25,-92.9999 -42.0039,-202.0079 -44.0039,-283.0078 -2,-84.9999 -11.9883,-104.0039 -37.9883,-74.0039 -26,28 -41.0078,79.004 -48.0078,164.0039 -3,41 -12,116 -20,165 -8,49.9999 -16.0078,104 -18.0078,120 -8,51.9999 -36.9883,197.9962 -52.9883,255.9961 -13,51.9999 -20.0039,91.0041 -44.0039,269.0039 -4,36 -16.0039,91.0078 -24.0039,123.0078 -9,32 -15.9961,68.9922 -15.9961,81.9922 0,34 -16.9961,103.9923 -50.9961,211.9922 -16,49.9999 -29.0039,103.0117 -29.0039,117.0117 0,25 -18,97.9962 -40,165.9961 -7,19 -16,53 -20,75 -5,22 -14,60 -20,85 -31,126.9999 -39.0039,171.0002 -64.0039,375 -33,271.9997 -46.9922,403.0001 -51.9922,480 -2,44 -6.9961,87 -10.9961,95 -7,18 -20.0078,103.0001 -33.0078,225 -5,49.9999 -14,113 -20,140 -10,49 -21,123.0002 -40,275 -5,41 -14,100 -20,130 -15,76.9999 -27,155.0001 -45,295 -8,65.9999 -19.9922,143 -26.9922,170 -20,88.9999 -72.0079,239.0079 -123.0078,353.0078 -20,46 -42.9961,109 -50.9961,140 -8,32 -18.0078,65.9922 -23.0078,76.9922 -5,11 -11.9961,34 -15.9961,50 -3,17 -10.9961,48 -15.9961,70 -14,54.9999 -33.0117,219.0001 -32.0117,285 0,81.9999 20.0078,297.0001 33.0078,360 39,197.9998 28,807.0002 -20,1035 -5,28 -14,75 -20,105 -5,30 -14.0039,71 -19.0039,90 -42,152.9998 -53.9961,203.0001 -60.9961,260 -10,76.9999 -23.0039,127.9922 -39.0039,156.9922 -6,13 -24.9961,64.0039 -40.9961,114.0039 -17,49.9999 -36.0039,105.0078 -44.0039,123.0078 -8,17 -23.9961,62.9961 -35.9961,100.9961 -13,39 -30.9961,86 -40.9961,105 -10,19 -28,64 -40,100 -12,36 -25.9961,69.9922 -30.9961,76.9922 -13,17 -83.0117,239.0078 -97.0117,308.0078 -7,33 -24.9961,96 -40.9961,140 -27,79 -33.9961,106 -50.9961,215 -12,78 -27.0039,167 -39.0039,225 -48,237 -47,1008.004 0,1094.004 18,31 40,93.996 40,110.996 0,10 4.9961,19.992 10.9961,21.992 8,3 12.0078,44.008 13.0078,123.008 1,107 -0.9961,124 -20.9961,155 -13,21 -28.0078,75.008 -38.0078,138.008 -15,86 -15.9922,121 -6.9922,225 6,67 9.9883,184.992 7.9883,261.992 -2,135 -4,143 -35,210 -49,104 -119,247 -135,275 -27,47 -93.9961,195 -105.9961,235 -34,107 -125.0039,339.992 -139.0039,356.992 -6,7 -26.0039,36.008 -44.0039,63.008 -63.9999,101 -136.0001,171.992 -215,216.992 -21,11 -41.9883,24.004 -47.9883,29.004 -6,5 -37.9961,10.012 -70.9961,12.012 -66.9999,2 -139.0039,-24 -149.0039,-55 -13,-43 26.9923,-157.016 86.9922,-246.016 30,-45 38.0117,-77 17.0117,-70 -7,3 -18.0078,13.004 -23.0078,24.004 -38,70 -67,104.004 -90,104.004 -16,0 -32.9922,12.008 -51.9922,38.008 -43.9999,59 -64.0118,77.996 -117.0117,110.996 -44,27 -58.9923,30.996 -121.9922,30.996 -46.9999,0 -75.0078,-4.008 -83.0078,-13.008 -13,-17 0,-66.996 30.9961,-115.996 13,-20 28.0039,-46.996 34.0039,-60.996 30,-68 40.0117,-87.004 57.0117,-109.004 11,-16 13.9883,-28.004 7.9883,-34.004 -18,-18 -38.9922,1 -76.9922,70 C 1181.004,13999.992 1130,14073 1110,14073 c -38,0 -70,-18.992 -70,-41.992 0,-29 26.9961,-112 50.9961,-160 5,-10 9.0039,-25.008 9.0039,-33.008 0,-8 4,-23.008 10,-33.008 5,-9 18.0039,-36 29.0039,-60 17,-37 18,-43.984 5,-48.984 -8,-3 -16.0117,-4.012 -17.0117,-2.012 -1,2 -12,17.996 -25,35.996 -12,18 -21.9922,36.016 -21.9922,41.016 0,21 -82.99611,183.984 -95.99609,188.984 -49.99995,19 -84.00391,-28.996 -84.00391,-115.996 0,-52 48.99222,-186 81.99219,-220 10.99999,-12 17.0039,-28.992 14.0039,-36.992 -4.99999,-13 -8.99611,-13.008 -30.99609,1.992 -13.99999,9 -25,20 -25,25 0,5 -18.00002,38.004 -40,74.004 -21.99998,36 -40,76.004 -40,89.004 0,13 -7.00001,28.996 -15,35.996 -23.99998,20 -38.00782,-1.992 -43.00781,-66.992 -3,-51 1.01175,-67.008 32.01172,-128.008 18.99998,-38 53.00002,-95 75,-125 21.99997,-30 51.9922,-75 66.99218,-100 33.00001,-55 146.00791,-189.992 208.00781,-246.992 25,-23 52.9922,-57.004 61.9922,-74.004 9,-18 25,-41.012 35,-52.012 10,-12 19.0039,-27 19.0039,-35 0,-7 9.0039,-34 19.0039,-60 10,-26 28.9961,-73.992 40.9961,-106.992 26,-73 35.0039,-90.996 59.0039,-130.996 10,-16 21.9961,-41 25.9961,-55 4,-13 17.9961,-37.012 30.9961,-52.012 13,-15 29,-47 35,-70 6,-23 14.0117,-45.992 17.0117,-51.992 18,-28 33.9922,-88.008 41.9922,-163.008 7,-66 5,-106.992 -10,-206.992 -20,-128 -19,-171 10,-330 30,-160 36,-346 25,-710 -11,-334 -54,-702.004 -95,-809.004 -6,-16 -12.9961,-69 -15.9961,-120 -9,-157.9997 -45,-389.9961 -75,-480.996 -5,-16 -14,-79.004 -20,-139.0039 -5,-58.9999 -11.9961,-113.0039 -15.9961,-119.0039 -3,-5 -8,-50.9962 -10,-100.9961 -2,-50 -10.0078,-129.9883 -18.0078,-177.9883 -8,-47.9999 -14.9961,-150.0001 -15.9961,-225 -1,-126.9999 3.9883,-180.008 32.9883,-348.0078 5,-33 13.0078,-85 18.0078,-115 4,-30 15.0039,-77 24.0039,-105 8,-27 15.9961,-61.9922 15.9961,-76.9922 0,-50.9999 54,-262.0079 100,-393.0078 9,-27 21.9922,-66 26.9922,-85 33,-109.9999 98.0078,-311 113.0078,-345 10,-22 22.0078,-58 28.0078,-80 5,-22 16.9961,-59.0078 25.9961,-83.0078 18,-48 33.9961,-180.9924 45.9961,-381.9922 4,-73.9999 13,-160 20,-190 6,-30 15.9961,-100.0001 20.9961,-155 31,-347.9997 47,-492.0001 65,-610 17,-104.9999 14.0039,-358.0002 -5.9961,-570 -5,-54.9999 -13.0078,-147.9962 -18.0078,-205.9961 -5,-57.9999 -12.9883,-130 -17.9883,-160 -4,-30 -8,-70.0039 -10,-89.0039 -2,-33 -11,-88.0002 -50,-300 -30,-161.9998 -34,-185.0001 -40,-250 -3,-36 -14.0039,-99 -24.0039,-140 -44,-169.9998 -59.9961,-287.008 -60.9961,-443.0078 -1,-84.9999 1,-159 5,-165 15,-25 27.9961,-181.9924 30.9961,-376.9922 1,-114.9999 8,-237.9922 15,-271.9922 7,-37 9,-77 5,-100 -12,-55.9999 -8,-443.008 5,-623.0078 22,-293.9997 28,-355.0001 40,-405 12,-54.9999 28,-139.0001 40,-225 4,-30 13,-73 20,-95 7,-22 13.9922,-58 16.9922,-80 2,-22 15.0078,-85.0001 28.0078,-140 14,-54.9999 29,-134 35,-175 6,-41 17,-102.00003 25,-135 8,-33.99997 17,-136.0001 20,-235 8,-230.99977 7.9922,-237.00006 6.9922,-295 -6,-206.99979 -6,-231.00007 -5,-300 1,-26.99997 2.0156,-77.000033 1.0156,-110 0,-32.999967 4.9961,-91.000039 10.9961,-130 17,-111.99989 30.9922,-224.00008 36.9922,-305 4,-40.99996 10.0039,-79.00001 14.0039,-85 4,-5 4,-50.00396 0,-99.00391 -5,-50.99995 -5.0039,-113.00003 0.9961,-145 5,-30.99997 9.0039,-78.00002 9.0039,-105 0,-26.99997 4.0039,-65.00002 9.0039,-85 5,-19.99998 14.9961,-62.99612 20.9961,-95.99609 7,-33 15.9961,-67.9922 20.9961,-76.9922 5,-10 9.0039,-28.0156 9.0039,-41.0156 0,-21 27.9961,-139.9923 60.9961,-256.9922 37,-130.9999 72.0117,-531.0003 72.0117,-810 -1,-227.9998 -12.0078,-530.0079 -23.0078,-618.0078 -6,-40 -10,-110.9922 -10,-156.9922 0,-46 -4.0078,-86.0039 -8.0078,-89.0039 -5,-3 -9,-39.9883 -10,-82.9883 -3,-85.9999 -16.9961,-176.008 -55.9961,-353.0078 -41,-188.9998 -64,-325.9963 -85,-520.9961 -5,-42 -12,-89 -15,-105 -7,-35 -33.9961,-230.004 -45.9961,-334.0039 -5,-41 -14,-115 -20,-165 -7,-49 -15.9961,-133.0001 -20.9961,-185 -18,-207.9998 -38.9961,-367.0001 -60.9961,-480 -9,-43 -13.0078,-156.008 -13.0078,-338.0078 0,-295.9997 -6.0039,-323.9843 -44.0039,-203.9844 -20,62 -21.9883,81.9924 -17.9883,276.9922 4,196.9998 12,290.0001 35,410 6,28 12.9922,97.0001 16.9922,155 4,57.9999 11,121 15,140 5,19 13.9961,96.0001 20.9961,170 6,73.9999 17.9961,176 25.9961,225 28,176.9998 29.0039,161 -5.9961,195 -27,27 -37.9922,59.0039 -31.9922,94.0039 1,4 -2.0117,13 -7.0117,20 -14,18 -48.9883,125.9962 -62.9883,190.9961 -7,33 -15.9961,64 -20.9961,70 -4,5 -8.0078,22.0078 -8.0078,38.0078 0,16 -18.0039,81.9962 -39.0039,145.9961 -43,128.9999 -54.9922,174.9962 -71.9922,270.9961 -6,35 -16.0117,74 -22.0117,85 -8,14 -11.9883,110.0002 -12.9883,310 -2,384.9996 -26.0039,774.0001 -54.0039,880 -26,93.9999 -32.0039,123.0001 -39.0039,185 -4,36 -13.9883,83 -22.9883,105 -9,22 -21.0078,67 -28.0078,100 -6,33 -20,89 -30,125 -11,36 -23.9961,85 -30.9961,110 -6,25 -19.0039,70 -29.0039,100 -26,76.9999 -47.0039,166.0001 -54.0039,230 -7,56.9999 -50.9961,211.0001 -90.9961,315 -31,78.99992 -41.0039,120.00012 -59.0039,240 -9,54.99994 -19.9961,123.00003 -25.9961,150 -5,27.99997 -12,64.00002 -15,80 -13,65.99993 -36.0039,247.00017 -54.0039,420 -5,49.99995 -14.9961,119.00004 -20.9961,155 -12,63.99994 -22,177.99241 -35,396.99219 -11.99999,182.99981 32.9923,394.01187 116.9922,552.01171 21,40 45.0078,79.9922 53.0078,86.9922 8,8 21.9961,40.0117 30.9961,72.0117 9,31 29,98.9962 45,150.9961 16,51 29.0039,110 29.0039,130 0,20 4.9961,41.9883 10.9961,47.9883 6,6 10.0039,53.004 9.0039,119.0039 -1,59.9999 -1,135.0117 0,167.0117 1,32 -3.0039,63.9961 -9.0039,70.9961 -8,9 -7.9961,28.9922 -0.9961,66.9922 6,30 13.0039,110.004 14.0039,179.0039 3,74.9999 11,149 20,185 10,33 16.0039,78 14.0039,100 -8,109.9999 -130.0039,1.0077 -169.0039,-151.9922 -11,-42.9999 -25,-94.0078 -30,-113.0078 -6,-19 -14.0078,-53 -18.0078,-75 -5,-22 -14.9883,-58 -22.9883,-80 -9,-22 -21.0039,-60.0078 -29.0039,-83.0078 -7,-24 -28.0117,-58.9883 -47.0117,-77.9883 -47.99996,-47.9999 -92.98444,-46.996 -148.98439,4.0039 C 826.00786,1932.0078 720,2077 720,2098 c 0,8 -4.9961,16.9961 -10.99609,20.9961 -6,3 -19.00001,27.0117 -30,52.0117 -18.99998,45 -19.00389,44.9962 0.99609,115.9961 11.99999,39 25.99219,88.9961 31.99219,110.9961 30.99997,114.9999 83.00399,177.0078 169.0039,203.0078 C 937.99604,2619.0078 1048,2662 1090,2683 c 48,25 54.0078,54.9922 13.0078,71.9922 -33,13 -144.00003,30.0039 -189.99999,29.0039 -17.99998,-1 -50.00002,-7 -70,-15 C 822.00783,2760.9961 788.99998,2749 770,2743 c -18.99998,-7 -44.00001,-16.9961 -55,-20.9961 -10.99999,-4 -45.99222,-13 -76.99219,-20 C 571.00788,2688.0039 520,2660 520,2638 c 0,-8 4.9961,-15 10.99609,-15 11.99999,0 8.99608,-59.0002 -9.0039,-215 -13.99999,-109.9999 -20.00003,-141.0001 -45,-205 -37.99996,-99.9999 -99.99613,-193 -135.9961,-205 -10.99999,-3 -23.9961,-19 -30.99609,-35 -19.99998,-49 -35.99999,-34.9999 -30,25 1,11 24.00003,40 50,65 38.99996,36 57.00394,64.0001 89.00391,140 34.99996,83.9999 41.9961,113.004 55.99609,244.0039 8.99999,80.9999 13.99609,150.9883 10.99609,152.9883 -6.99999,8 -63.9922,-58.9922 -81.99218,-96.9922 -8.99999,-19 -37.01175,-66 -62.01172,-105 -24.99998,-38 -52.98829,-90.9922 -62.98828,-116.9922 -8.99999,-26 -25.99611,-60 -35.9961,-75 -10.99999,-15 -41.01174,-72 -67.01172,-125 -46.99995,-95.9999 -46.99608,-98.0001 -40.99609,-170 C 139,1861.0079 148.9922,1806 156.99219,1778 164.99218,1751 176,1703 180,1673 c 5,-30 16.00391,-91 24.00391,-135 26.99997,-138.9999 67.98828,-398.004 72.98828,-454.0039 2.99999,-32 1.0039,-57.0039 -5.9961,-64.0039 C 264.9961,1013.9922 260,992.99998 260,973 c 0,-18.99998 -9.00001,-46.00001 -20,-60 -10.99999,-13.99999 -20,-33.99611 -20,-45.99609 0,-11.99999 -4.9961,-35.01174 -10.99609,-52.01172 -8,-23.99998 -7.0039,-35.00002 5.99609,-55 8.99999,-13.99999 19.9961,-48.98831 25.99609,-77.98828 C 255.99608,598.00399 278.00002,505.99992 300,428 321.99998,352.00008 333.00393,296.00767 359.00391,151.00781 364.0039,122.00784 374.00001,75.999972 380,48 c 5.99999,-26.999973 13,-86.996138 15,-130.996094 2,-44.999956 9.00391,-110.000036 14.00391,-144.999996 17.99998,-111.99989 17.99998,-507.00406 0,-654.00391 -5,-43.99996 -9.00391,-138.9923 -9.00391,-211.9922 0,-71.9999 -4.00391,-154 -9.00391,-180 -5.99999,-26 -12,-127.0079 -15,-223.0078 -3.99999,-139.9999 -17.00391,-376.0002 -29.0039,-535 -4,-45 16.00391,-245.9961 24.0039,-250.9961 5,-3 9.00391,-22.0117 9.00391,-42.0117 1,-36 18.99611,-117.9922 30.99609,-136.9922 4,-5 17.00392,-53.0001 29.00391,-105 20.99998,-88.9999 32.00005,-129.0001 80,-270 37.99996,-113.9999 51.00001,-167.0079 60,-248.0078 5,-45 11.00391,-86 14.00391,-90 4.99999,-9 9.99218,-456.9886 6.99218,-782.9883 -1,-229.9998 15.00003,-444.004 40,-544.0039 6,-22 15.00391,-62 19.00391,-90 5,-27 14.00001,-68 20,-90 5.99999,-22 15.00391,-56 19.00391,-75 4.99999,-19 15.00391,-55 24.0039,-80 C 767.00777,-4966.9999 778,-5080.0042 780,-5391.0039 781,-5545.0038 783,-5673 785,-5677 c 2,-3 11.00001,-53.0001 20,-110 8.99999,-57.9999 22.9922,-134 31.99219,-170 8.99999,-36 19.00781,-92 23.00781,-125 4,-33 14.00782,-80 23.00781,-105 7.99999,-25 24.9922,-76 36.99219,-115 12.99999,-38 30.9961,-88 40.99609,-110 9.99999,-22 25.00392,-69.0039 34.00391,-104.0039 18,-68.9999 41,-142.9961 55,-175.9961 4,-11 16,-40 25,-65 9,-25 22.0039,-58 29.0039,-75 8,-16 21.9922,-50.0039 31.9922,-74.0039 38,-89.9999 257.004,-275.004 389.0039,-329.0039 33,-13 84.0078,-34.9883 113.0078,-47.9883 29,-13 65.9883,-24.0039 82.9883,-24.0039 16,0 48,-9.0039 70,-19.0039 60.9999,-30 274.0118,-39.9961 332.0117,-15.9961 149.9999,60.9999 182.9923,80.9962 251.9922,150.9961 91.9999,92.9999 131.0001,120 185,130 95.9999,17 280,7 280,-15 0,-11 -42.0002,-19.0039 -230,-49.0039 -79.9999,-12 -117.9962,-33.9845 -190.9961,-108.9844 -35,-36 -84.9961,-79 -110.9961,-95 -27,-16 -48.0078,-35.0117 -48.0078,-42.0117 0,-6 21.0078,-17.0039 48.0078,-24.0039 26,-7 66.9922,-19.9844 91.9922,-28.9844 25,-8 68,-19.0039 95,-24.0039 88.9999,-15 221,-55.0039 230,-69.0039 3,-6 13,-10 20,-10 8,0 46.9922,-22.0039 86.9922,-49.0039 39.9999,-26 91.0078,-58.0039 113.0078,-69.0039 22,-11 53.9922,-33.9961 71.9922,-50.9961 17,-17 51.0156,-43.0039 76.0156,-59.0039 25,-16 56,-41.9883 70,-57.9883 14,-16 35.9844,-35.0117 48.9844,-42.0117 52.9999,-29 105.0039,-182.9924 129.0039,-381.9922 4,-36 13,-83 20,-105 16,-52.9999 21.0117,-361.0078 7.0117,-398.0078 -11.25,-28.5 -2.2578,-49.125 12.2266,-45 z m 378.7695,449.0039 c -21,-7 0.9883,116.0118 32.9883,182.0117 C 3854.9921,-8024.9923 3880,-7966 3880,-7947 c 0,10 4.0078,21.0039 8.0078,24.0039 5,3 23,48.9883 40,102.9883 23,73.9999 31.9961,124.0157 35.9961,206.0156 6,126.9999 11.0039,139.9883 44.0039,117.9883 26,-16 7.9961,-272.9884 -24.0039,-347.9883 -8,-18 -20.0078,-48 -28.0078,-65 -8,-18 -19.9922,-51.0078 -26.9922,-73.0078 -15,-48 -58.0078,-144.0039 -73.0078,-164.0039 -6,-8 -27.9883,-52.0001 -47.9883,-100 -20,-47 -42.0039,-87 -49.0039,-90 z m 115.8789,1125 c -12.625,-3.5 -19.8867,2.4961 -28.8867,15.9961 -13,21 36.0039,88.0078 64.0039,88.0078 11,0 47.9922,28.0078 81.9922,63.0078 53.9999,52 66.0117,70.9922 77.0117,116.9922 16,66.9999 54.9883,137.0078 77.9883,143.0078 32,8 71.0117,6.9883 97.0117,-2.0117 35,-14 75.9961,-87.9883 75.9961,-137.9883 0,-32 7.0039,-49.0039 39.0039,-84.0039 C 4406.0039,-7061.996 4440,-7120 4440,-7147 c 0,-30 -19.0078,-24.0039 -38.0078,10.9961 -18,34 -61.9962,81.9961 -105.9961,115.9961 -23,19 -27.9922,31 -31.9922,85 -10,124.9999 -98.0117,151.0077 -132.0117,38.0078 -6,-19 -15.9883,-55.0039 -22.9883,-79.0039 -14,-48 -74.0079,-115.004 -173.0078,-194.0039 -30.5,-24.5 -48.4883,-37.4961 -61.1133,-40.9961 z m 354.1211,2035.9961 c -15,5 -39.0078,51.004 -58.0078,109.0039 C 4156.9961,-5022.004 4156,-4864 4170,-4817 c 5,19 12.9961,77.0001 15.9961,130 8,117.9999 19.0117,142.9922 52.0117,121.9922 13,-9 7.9961,-87.0002 -19.0039,-320 -12,-100.9999 -4.0039,-228.9962 15.9961,-275.9961 6,-14 5.0039,-18.0039 -5.9961,-14.0039 z M 951.34766,-2931.5312 c -7.53125,-3.9688 -15.09376,-3.9727 -22.34375,0.5273 -11.99999,7 -11.99999,37 0,50 4.99999,5 18.9961,50.0039 30.99609,99.0039 21.99998,90.9999 48.9961,149.004 95.9961,204.0039 28,34 44.0039,39 44.0039,15 0,-8 -18,-52.0079 -40,-98.0078 -22,-45 -44.9961,-108.9922 -50.9961,-141.9922 -12.74998,-68.9999 -35.06252,-116.6289 -57.65624,-128.5351 z M 6995,-2857 c -8,0 -15,6.0078 -15,13.0078 -1,6 -14,27.9922 -30,46.9922 -17,19 -30,39.9922 -30,46.9922 0,7 -4.0039,21.0156 -9.0039,31.0156 -27,48 -66.9961,214.9922 -55.9961,231.9922 10,16 43.0039,11.0078 49.0039,-6.9922 7,-23 25.9883,-109.0157 32.9883,-151.0156 3,-18 9.0039,-34.9883 14.0039,-37.9883 5,-3 9.0039,-16.0039 9.0039,-29.0039 0,-14 11,-49.9961 25,-80.9961 29,-66.9999 29,-64.0039 10,-64.0039 z m -2899.6289,1210.2539 c -12.875,0.25 -26.375,3.25 -29.375,8.75 -12,19 25.0117,187.0039 47.0117,219.0039 13,17 81.9961,14.9883 95.9961,-2.0117 18,-22 9.9961,-140.9961 -9.0039,-140.9961 -10,0 -17,13 -20,40 -3,27 -9.9922,41.0078 -21.9922,43.0078 -18,4 -27.0078,-26.004 -33.0078,-109.0039 -1,-24 -3.0039,-46.9961 -4.0039,-50.9961 -0.5,-5.5 -12.75,-8.0039 -25.625,-7.7539 z M 7181.9922,2093 c 33,0 59.0117,234.008 42.0117,378.0078 -6,53 -11.0078,66 -33.0078,80 -31,20 -63.9922,56.0001 -91.9922,100 -19,30 -37.9961,39.9961 -50.9961,25.9961 -3,-3 5.9844,-35.0117 18.9844,-72.0117 28,-72.9999 52.0078,-219.9923 53.0078,-321.9922 1,-105.9999 27.9922,-190 61.9922,-190 z M 2114.0039,6556.9258 c -2.625,0.9531 -4.5,3.832 -5,9.082 -3,37 23.9962,138.9846 80.9961,313.9844 6,18 11.9922,95.0001 11.9922,170 0,75.9999 3,141.0156 5,146.0156 8,13 21.0117,6.9922 37.0117,-18.0078 19,-29 22,-183.004 5,-249.0039 -6,-22 -14.9961,-58.9961 -20.9961,-80.9961 -5,-22 -18.0078,-60 -28.0078,-85 -25,-65.9999 -51.0039,-141 -59.0039,-175 -4.5,-19.5 -19.1172,-33.9336 -26.9922,-31.0742 z M 2870,6624.1328 c -5.5,0.375 -11.9961,9.375 -15.9961,26.875 -8,33 -38.9961,94.9883 -55.9961,112.9883 -8,8 -33.0117,48.0039 -57.0117,89.0039 -65.9999,111.9999 -99.9922,160.9961 -146.9922,205.9961 -55.9999,55.9999 -81.0078,108.0118 -98.0078,207.0117 -9,51 7.9961,75 30.9961,45 6,-7 20.0078,-43 33.0078,-80 17,-48.9999 42.0079,-89 93.0078,-150 38,-45.9999 79.9883,-103.0078 92.9883,-128.0078 14,-25 42.0039,-74 64.0039,-110 40,-67.9999 70,-149.004 70,-194.0039 0,-17 -4.5,-25.2383 -10,-24.8633 z m 2536.9922,51.875 c -8,3 -10.9844,22.9883 -8.9844,67.9883 4,63.9999 24.9844,113.9961 68.9844,165.9961 10,11 25.0078,31.0078 33.0078,43.0078 8,12 41.0078,47.0078 73.0078,78.0078 32,31 66.9883,70.9883 77.9883,87.9883 23,39 49.0039,119.0118 49.0039,157.0117 0,15 5,26.9922 10,26.9922 6,0 10,-23.9922 10,-51.9922 -1,-57.9999 -18,-128.0039 -40,-169.0039 -8,-15 -51.9961,-65.0118 -95.9961,-112.0117 -86.9999,-91.9999 -144.0039,-178.0001 -144.0039,-220 0,-38 -18.0078,-78.9844 -33.0078,-73.9844 z M 6174.0039,6938 l -8.0078,25 c -3,14 -11.9922,43 -16.9922,65 -14,50.9999 -21.0039,68.9922 -49.0039,126.9922 -21,44.9999 -21.9961,78.0078 -0.9961,78.0078 5,0 21.0039,-23.9922 34.0039,-51.9922 14,-29 27.9922,-66.0078 31.9922,-83.0078 17,-79.9999 20,-112 15,-135 z" />
</svg>
